<?xml version="1.0" encoding="UTF-8" standalone="no"?>
<svg width="61px" height="61px" viewBox="0 0 61 61" version="1.1" xmlns="http://www.w3.org/2000/svg" xmlns:xlink="http://www.w3.org/1999/xlink" xmlns:sketch="http://www.bohemiancoding.com/sketch/ns">
    <!-- Generator: Sketch 3.1 (8751) - http://www.bohemiancoding.com/sketch -->
    <title>Fill 1734 + Fill 1735 + Fill 1736</title>
    <desc>Created with Sketch.</desc>
    <defs></defs>
    <g id="Page-2" stroke="none" stroke-width="1" fill="none" fill-rule="evenodd" sketch:type="MSPage">
        <g id="Fill-1734-+-Fill-1735-+-Fill-1736" sketch:type="MSLayerGroup" fill="#1B1A19">
            <path d="M58.029,58.041 L2.029,58.041 L2.029,52.73 C2.029,48.971 4.399,45.55 7.841,44.25 L16.446,41.871 L30.028,55.41 L43.638,41.88 L52.132,44.23 C55.66,45.55 58.029,48.971 58.029,52.73 L58.029,58.041 L58.029,58.041 Z M30.029,42.39 C31.658,42.39 34.183,41.52 36.62,39.95 L41.417,41.271 L30.03,52.581 L18.664,41.26 L23.427,39.94 C25.867,41.51 28.398,42.39 30.029,42.39 L30.029,42.39 Z M18.42,28.78 C18.42,28.23 17.973,27.78 17.42,27.78 C16.095,27.78 15.38,26.141 15.38,24.61 C15.38,23.86 15.558,23.16 15.867,22.69 C16.155,22.25 16.536,22.041 17.029,22.041 C17.582,22.041 18.029,21.59 18.029,21.041 L18.029,17 C20.081,18.26 24.022,20.04 30.029,20.04 C36.036,20.04 39.977,18.26 42.029,17 L42.029,21.041 C42.029,21.59 42.477,22.041 43.029,22.041 C43.523,22.041 43.903,22.25 44.192,22.69 C44.501,23.16 44.678,23.86 44.678,24.61 C44.678,26.141 43.963,27.78 42.638,27.78 C42.086,27.78 41.638,28.23 41.638,28.78 C41.638,32.72 39.001,35.91 36.103,37.94 C35.96,38 35.833,38.081 35.728,38.19 C33.608,39.59 31.405,40.391 30.029,40.391 C28.612,40.391 26.317,39.55 24.139,38.061 C24.095,38.03 24.054,38 24.006,37.98 C21.088,35.951 18.42,32.741 18.42,28.78 L18.42,28.78 Z M29.858,12.11 C29.915,12.12 29.972,12.13 30.029,12.13 C30.086,12.13 30.144,12.12 30.201,12.11 L42.029,10.05 L42.029,14.57 C40.943,15.41 37.001,18.041 30.029,18.041 C23.055,18.041 19.112,15.41 18.029,14.57 L18.029,10.05 L29.858,12.11 L29.858,12.11 Z M30.029,2.05 L53.193,6.081 L30.029,10.11 L6.866,6.081 L30.029,2.05 L30.029,2.05 Z M5.221,32.04 L7.169,21 L9.767,32.04 L5.221,32.04 L5.221,32.04 Z M52.75,42.33 L43.763,39.851 C43.711,39.82 43.657,39.81 43.602,39.8 L38.653,38.43 C41.207,36.26 43.31,33.27 43.603,29.65 C45.607,29.081 46.678,26.79 46.678,24.61 C46.678,23.46 46.388,22.38 45.861,21.59 C45.399,20.891 44.768,20.411 44.029,20.18 L44.029,9.71 L59.201,7.07 C59.68,6.98 60.029,6.57 60.029,6.081 C60.029,5.601 59.68,5.18 59.201,5.1 L30.201,0.05 C30.088,0.03 29.971,0.03 29.858,0.05 L0.858,5.1 C0.379,5.18 0.029,5.601 0.029,6.081 C0.029,6.57 0.379,6.98 0.858,7.07 L6.029,7.97 L6.029,15.95 L3.044,32.86 C2.993,33.161 3.073,33.451 3.263,33.68 C3.453,33.911 3.734,34.041 4.029,34.041 L11.029,34.041 C11.335,34.041 11.624,33.9 11.813,33.66 C12.003,33.42 12.073,33.11 12.003,32.811 L8.029,15.92 L8.029,8.31 L16.029,9.71 L16.029,20.18 C15.291,20.411 14.659,20.891 14.197,21.59 C13.67,22.38 13.38,23.46 13.38,24.61 C13.38,26.79 14.451,29.081 16.456,29.65 C16.749,33.27 18.846,36.25 21.396,38.43 L7.224,42.351 C2.921,43.97 0.029,48.141 0.029,52.73 L0.029,60.041 L60.029,60.041 L60.029,52.73 C60.029,48.141 57.138,43.97 52.75,42.33 L52.75,42.33 Z" id="Fill-1734" sketch:type="MSShapeGroup"></path>
            <path d="M23.464,23.741 C23.464,23.63 23.476,23.561 23.471,23.55 C23.657,23.471 24.248,23.471 24.643,23.471 L24.985,23.48 L25.328,23.471 C25.743,23.471 26.369,23.471 26.481,23.51 C26.482,23.51 26.508,23.57 26.508,23.741 C26.508,24.291 26.956,24.74 27.508,24.74 C28.06,24.74 28.508,24.291 28.508,23.741 C28.508,23.061 28.309,22.521 27.915,22.13 C27.245,21.46 26.258,21.46 25.312,21.48 L24.659,21.48 C23.71,21.47 22.728,21.46 22.057,22.13 C21.663,22.521 21.464,23.061 21.464,23.741 C21.464,24.291 21.912,24.74 22.464,24.74 C23.016,24.74 23.464,24.291 23.464,23.741" id="Fill-1735" sketch:type="MSShapeGroup"></path>
            <path d="M32.551,24.74 C33.103,24.74 33.551,24.291 33.551,23.741 C33.551,23.63 33.562,23.561 33.558,23.55 C33.745,23.471 34.335,23.471 34.731,23.471 L35.073,23.48 L35.415,23.471 C35.829,23.471 36.456,23.471 36.568,23.51 C36.569,23.51 36.595,23.57 36.595,23.741 C36.595,24.291 37.043,24.74 37.595,24.74 C38.147,24.74 38.595,24.291 38.595,23.741 C38.595,23.061 38.396,22.521 38.002,22.13 C37.332,21.46 36.349,21.46 35.399,21.48 L34.746,21.48 C33.8,21.47 32.814,21.46 32.144,22.13 C31.75,22.521 31.551,23.061 31.551,23.741 C31.551,24.291 31.999,24.74 32.551,24.74" id="Fill-1736" sketch:type="MSShapeGroup"></path>
        </g>
    </g>
</svg>