<?xml version="1.0" encoding="UTF-8" standalone="no"?>
<svg width="61px" height="61px" viewBox="0 0 61 61" version="1.1" xmlns="http://www.w3.org/2000/svg" xmlns:xlink="http://www.w3.org/1999/xlink" xmlns:sketch="http://www.bohemiancoding.com/sketch/ns">
    <!-- Generator: Sketch 3.1 (8751) - http://www.bohemiancoding.com/sketch -->
    <title>Fill 2737 + Fill 2738</title>
    <desc>Created with Sketch.</desc>
    <defs></defs>
    <g id="Page-2" stroke="none" stroke-width="1" fill="none" fill-rule="evenodd" sketch:type="MSPage">
        <g id="Fill-2737-+-Fill-2738" sketch:type="MSLayerGroup" fill="#0A0B09">
            <path d="M58.03,44.6865479 L32.03,57.691474 L32.03,26.9368246 L58.03,14.8602501 L58.03,44.6865479 L58.03,44.6865479 Z M2.03,14.8182342 L30.03,26.953831 L30.03,57.7404926 L2.03,44.6675407 L2.03,14.8182342 L2.03,14.8182342 Z M31.02,25.2011671 L3.63,13.3296703 L17.69,7.70253884 L43.16,19.5630315 L31.02,25.2011671 L31.02,25.2011671 Z M31.02,2.37051914 L56.58,13.3296703 L45.53,18.4596135 L20.24,6.68415309 L31.02,2.37051914 L31.02,2.37051914 Z M60.03,13.2976582 L60.03,13.2926563 C60.03,13.1766124 60,13.067571 59.97,12.9615309 C59.96,12.9365214 59.95,12.9125123 59.94,12.8895036 C59.89,12.7844638 59.83,12.6884274 59.75,12.6043956 C59.75,12.5983933 59.74,12.5943918 59.73,12.5883895 C59.68,12.5363698 59.63,12.4883516 59.57,12.4493369 C59.53,12.4283289 59.5,12.415324 59.46,12.3993179 C59.45,12.3913149 59.44,12.3793103 59.42,12.3733081 L31.42,0.368760894 C31.18,0.265721864 30.9,0.261720349 30.66,0.358757105 L0.66,12.3633043 C0.65,12.3693066 0.64,12.3803107 0.62,12.3873134 C0.58,12.407321 0.53,12.4263282 0.48,12.4573399 C0.44,12.4863509 0.4,12.5243653 0.36,12.5593786 C0.35,12.5723835 0.33,12.5833876 0.31,12.5983933 C0.24,12.6784236 0.18,12.7724593 0.13,12.8724972 C0.12,12.8955059 0.11,12.9185146 0.1,12.9425237 C0.06,13.0385601 0.04,13.1395983 0.04,13.2446381 C0.03,13.257643 0.03,13.270648 0.03,13.2816521 L0.03,13.2926563 L0.03,45.3057825 C0.03,45.6949299 0.25,46.0470633 0.61,46.210125 L30.61,60.2164305 C30.62,60.2234331 30.64,60.220432 30.65,60.2274346 C30.77,60.2764532 30.9,60.3114665 31.03,60.3114665 C31.17,60.3114665 31.3,60.2724517 31.43,60.2164305 C31.44,60.2104282 31.46,60.212429 31.48,60.2064267 L59.48,46.2011216 C59.82,46.0310572 60.03,45.6839257 60.03,45.3057825 L60.03,13.2976582 L60.03,13.2976582 Z" id="Fill-2737" sketch:type="MSShapeGroup"></path>
            <path d="M22.03,42.7868283 L10.03,37.6428799 L10.03,26.8147783 L22.03,31.9587268 L22.03,42.7868283 L22.03,42.7868283 Z M23.42,30.3801288 L9.42,24.3778552 C9.11,24.2458052 8.76,24.276817 8.48,24.4618871 C8.2,24.6479576 8.03,24.9610762 8.03,25.2972035 L8.03,38.3021296 C8.03,38.7022812 8.27,39.0654187 8.64,39.2214778 L22.64,45.2237514 C22.76,45.2787723 22.9,45.3057825 23.03,45.3057825 C23.22,45.3057825 23.41,45.2487609 23.58,45.1397196 C23.86,44.9546495 24.03,44.6405305 24.03,44.3044032 L24.03,31.2994771 C24.03,30.9003259 23.79,30.5361879 23.42,30.3801288 L23.42,30.3801288 Z" id="Fill-2738" sketch:type="MSShapeGroup"></path>
        </g>
    </g>
</svg>