<?xml version="1.0" encoding="UTF-8" standalone="no"?>
<svg width="61px" height="60px" viewBox="0 0 61 60" version="1.1" xmlns="http://www.w3.org/2000/svg" xmlns:xlink="http://www.w3.org/1999/xlink" xmlns:sketch="http://www.bohemiancoding.com/sketch/ns">
    <!-- Generator: Sketch 3.1 (8751) - http://www.bohemiancoding.com/sketch -->
    <title>Fill 1975 + Fill 1976</title>
    <desc>Created with Sketch.</desc>
    <defs></defs>
    <g id="Page-2" stroke="none" stroke-width="1" fill="none" fill-rule="evenodd" sketch:type="MSPage">
        <g id="Fill-1975-+-Fill-1976" sketch:type="MSLayerGroup" fill="#1B1A19">
            <g sketch:type="MSShapeGroup">
                <path d="M2.029,13.04 L58.029,13.04 L58.029,57.04 L2.029,57.04 L2.029,13.04 Z M32.029,2.35 L42.299,11.041 L21.76,11.041 L32.029,2.35 L32.029,2.35 Z M45.396,11.041 L32.675,0.271 C32.302,-0.04 31.756,-0.04 31.383,0.271 L18.663,11.041 L0.029,11.041 L0.029,59.041 L60.029,59.041 L60.029,11.041 L45.396,11.041 L45.396,11.041 Z" id="Fill-1975"></path>
                <path d="M48.029,37.04 L52.029,37.04 L52.029,51.04 L48.029,51.04 L48.029,37.04 Z M18.145,43.04 C19.836,39.871 21.469,36.13 22.469,32.14 C23.481,36.13 25.132,39.871 26.842,43.04 L18.145,43.04 L18.145,43.04 Z M17.033,45.04 L27.967,45.04 C29.496,47.641 30.961,49.7 31.968,51.04 L13.077,51.04 C14.072,49.71 15.521,47.641 17.033,45.04 L17.033,45.04 Z M42.029,45.17 L46.029,45.17 L46.029,51.04 L42.029,51.04 L42.029,45.17 Z M8.029,19.04 L52.029,19.04 L52.029,35.041 L47.029,35.041 C46.477,35.041 46.029,35.491 46.029,36.04 L46.029,43.17 L41.029,43.17 C40.477,43.17 40.029,43.621 40.029,44.17 L40.029,51.04 L34.504,51.04 C32.745,48.841 23.464,36.661 23.464,24.53 C23.464,23.98 23.016,23.53 22.464,23.53 C21.912,23.53 21.464,23.98 21.464,24.53 C21.464,36.661 12.299,48.83 10.55,51.04 L8.029,51.04 L8.029,19.04 L8.029,19.04 Z M6.029,53.041 L54.029,53.041 L54.029,17.041 L6.029,17.041 L6.029,53.041 Z" id="Fill-1976"></path>
            </g>
        </g>
    </g>
</svg>