<?xml version="1.0" encoding="UTF-8" standalone="no"?>
<svg width="61px" height="61px" viewBox="0 0 61 61" version="1.1" xmlns="http://www.w3.org/2000/svg" xmlns:xlink="http://www.w3.org/1999/xlink" xmlns:sketch="http://www.bohemiancoding.com/sketch/ns">
    <!-- Generator: Sketch 3.1 (8751) - http://www.bohemiancoding.com/sketch -->
    <title>Fill 546 + Fill 547</title>
    <desc>Created with Sketch.</desc>
    <defs></defs>
    <g id="Page-2" stroke="none" stroke-width="1" fill="none" fill-rule="evenodd" sketch:type="MSPage">
        <g id="Fill-546-+-Fill-547" sketch:type="MSLayerGroup" fill="#1B1A19">
            <path d="M30.029,58.04 C14.59,58.04 2.029,45.48 2.029,30.041 C2.029,14.6 14.59,2.04 30.029,2.04 C45.469,2.04 58.029,14.6 58.029,30.041 C58.029,45.48 45.469,58.04 30.029,58.04 L30.029,58.04 Z M30.029,0.041 C13.487,0.041 0.029,13.5 0.029,30.041 C0.029,46.58 13.487,60.041 30.029,60.041 C46.571,60.041 60.029,46.58 60.029,30.041 C60.029,13.5 46.571,0.041 30.029,0.041 L30.029,0.041 Z" id="Fill-546" sketch:type="MSShapeGroup"></path>
            <path d="M22.203,39.77 L22.203,20.311 L41.663,30.041 L22.203,39.77 L22.203,39.77 Z M44.346,29.14 L21.65,17.8 C21.341,17.64 20.972,17.66 20.677,17.84 C20.383,18.02 20.203,18.34 20.203,18.69 L20.203,41.39 C20.203,41.73 20.383,42.05 20.677,42.24 C20.838,42.34 21.021,42.39 21.203,42.39 C21.356,42.39 21.509,42.35 21.65,42.281 L44.346,30.93 C44.685,30.76 44.899,30.42 44.899,30.041 C44.899,29.66 44.685,29.311 44.346,29.14 L44.346,29.14 Z" id="Fill-547" sketch:type="MSShapeGroup"></path>
        </g>
    </g>
</svg>