<?xml version="1.0" encoding="UTF-8" standalone="no"?>
<svg width="79px" height="66px" viewBox="0 0 79 66" version="1.1" xmlns="http://www.w3.org/2000/svg" xmlns:xlink="http://www.w3.org/1999/xlink" xmlns:sketch="http://www.bohemiancoding.com/sketch/ns">
    <!-- Generator: Sketch 3.1 (8751) - http://www.bohemiancoding.com/sketch -->
    <title>Vector Logo</title>
    <desc>Created with Sketch.</desc>
    <defs></defs>
    <g id="Page-1" stroke="none" stroke-width="1" fill="none" fill-rule="evenodd" sketch:type="MSPage">
        <g id="Vector-Logo" sketch:type="MSLayerGroup" transform="translate(1.000000, 1.000000)">
            <path d="M33.0039062,50.8496094 C33.0039062,50.8496094 38.1906738,47.9533691 38.8691406,47.9533691 C39.5476074,47.9533691 37.973877,43.192627 35.8920898,43.192627 C33.8103027,43.192627 30.0378418,43 30.0378418,43 L30.0378418,39.1322601 L23.9033203,33.1315918 L31.3265049,33.1315918 L33.0170898,35.6750488 L37.5323842,35.6750488 L40.1054688,37.9628906 L42.0134277,37.9628906 L42.0134277,35.2080078 L45.0070801,32 L46.6518555,32.067627 L46.6518555,33.0830078 L50.5844734,33.0830078 C50.5844734,33.0830078 45.1696777,37.4060059 45.1696777,39.2871094 L45.1696777,43.0533251 C45.1696777,43.0533251 45.9030762,49.3422852 50.7416992,50.6889648 L41.2162876,50.6889648 L33.0039062,50.8496094 Z" id="Path-7" stroke="#968A86" fill="#968A86" sketch:type="MSShapeGroup"></path>
            <path d="M7.859375,50.909668 L7.859375,52.9941406 L9.03175058,52.9941406 L9.03175058,54.6677886 L13.7347148,54.6677886 L24.6923828,63.8952637 L57.8592468,63.8952637 L69.0256348,54.9257812 L71.6347656,54.9257812 L73.9926218,54.9257812 L73.9926218,53.1750488 L75.0069795,53.1750488 L75.0069795,50.9250479 L7.859375,50.909668 Z" id="Path-6" stroke="#134E5C" fill="#144E5E" sketch:type="MSShapeGroup"></path>
            <path d="M35.7121582,33.8310547 L5.41598049,33.8310547 C5.41598049,33.8310547 -7.80109582,29.2187941 5.41598049,22.0909644 L7.01220703,22.0791016 L7.01220703,19.0740701 C7.01220703,19.0740701 7.51660237,15.7499999 16.1960449,15.75 L16.2126465,12.137207 C16.2126465,12.137207 18.028077,6.18237305 28.5231934,7.47192383 L32.2407227,7.60791016 C32.2407227,7.60791016 40.2833666,-8.80859341 47.8034261,7.60791016 L53.2897949,7.52368164 C53.2897949,7.52368164 61.7592782,11.7995764 53.2897949,16.2662437 L34.2033691,15.9562988 C34.2033691,15.9562988 35.1801766,18.8464348 32.1188965,21.7045898 L35.1047363,21.708252 C35.1047363,21.708252 40.4509285,21.5534679 40.4509277,28.1704102 C40.4509269,34.7873524 35.7121582,33.8310547 35.7121582,33.8310547 Z" id="Path-8" stroke="#2C6868" fill="#2C6868" sketch:type="MSShapeGroup"></path>
            <path d="M73.0600586,34.0053711 L48.8078621,34.0053711 C48.8078621,34.0053711 38.5920428,30.5993597 48.8078621,24.506589 L51.9217657,24.506589 C51.9217657,24.506589 58.1789786,10.6918889 64.9644893,24.506589 L72.3120117,24.536377 C72.3120117,24.536377 76.8496094,24.7370603 76.8496094,29.2097168 C76.8496093,33.6823732 73.0600586,34.0053711 73.0600586,34.0053711 Z" id="Path-9" stroke="#2C6868" fill="#2C6868" sketch:type="MSShapeGroup"></path>
            <path d="M35.7436523,20.6052246 L38.0695801,16.6103516 L42.6369629,16.7023926 L38.6826172,22.2553711 L35.2167969,21.1967773 L35.7436523,20.6052246 Z" id="Path-10" stroke="#968A86" fill="#968A86" sketch:type="MSShapeGroup"></path>
        </g>
    </g>
</svg>